STARTFONT 2.1
COMMENT
COMMENT Converted from OpenType font "Q:\font stuff\winfont\Typo Script HPLHS.ttf" by "otf2bdf 3.0".
COMMENT
FONT -FreeType-Typo Script-Medium-R-Normal--52-520-72-72-P-204-ISO10646-1
SIZE 52 72 72
FONTBOUNDINGBOX 99 63 -9 -21
STARTPROPERTIES 19
FOUNDRY "FreeType"
FAMILY_NAME "Typo Script"
WEIGHT_NAME "Medium"
SLANT "R"
SETWIDTH_NAME "Normal"
ADD_STYLE_NAME ""
PIXEL_SIZE 52
POINT_SIZE 520
RESOLUTION_X 72
RESOLUTION_Y 72
SPACING "P"
AVERAGE_WIDTH 204
CHARSET_REGISTRY "ISO10646"
CHARSET_ENCODING "1"
FONT_ASCENT 42
FONT_DESCENT 20
COPYRIGHT "©2002 by Andrew Leman.  Revived from the 1923 ATF Specimen Book exclusively for the HPLHS.  www.cthulhulives.org  www.ahleman.com"
_OTF_FONTFILE "Q:\font stuff\winfont\Typo Script HPLHS.ttf"
_OTF_PSNAME "TypoScriptHPLHS"
ENDPROPERTIES
CHARS 77
STARTCHAR 0020
ENCODING 32
SWIDTH 134 0
DWIDTH 7 0
BBX 0 0 0 0
BITMAP
ENDCHAR
STARTCHAR 0021
ENCODING 33
SWIDTH 269 0
DWIDTH 14 0
BBX 11 15 2 -1
BITMAP
00E0
00C0
01C0
0180
0300
0300
0600
0400
0800
0800
1000
0000
0000
4000
C000
ENDCHAR
STARTCHAR 0024
ENCODING 36
SWIDTH 288 0
DWIDTH 15 0
BBX 16 24 -1 -5
BITMAP
0005
0009
000A
0032
00DC
01A6
01DA
035E
0398
01A0
01E0
01C0
02C0
0DE0
3D60
2D60
2AC0
3280
1F00
2800
6800
5000
9000
A000
ENDCHAR
STARTCHAR 0026
ENCODING 38
SWIDTH 326 0
DWIDTH 17 0
BBX 19 19 -1 0
BITMAP
0F00E0
398160
708260
608400
C10800
C10800
C21000
C62180
442300
4C4400
387800
378000
610000
E10000
C20000
C40000
880000
B00000
400000
ENDCHAR
STARTCHAR 002C
ENCODING 44
SWIDTH 173 0
DWIDTH 9 0
BBX 4 5 2 -3
BITMAP
30
30
20
60
80
ENDCHAR
STARTCHAR 002D
ENCODING 45
SWIDTH 192 0
DWIDTH 10 0
BBX 8 3 1 5
BITMAP
0F
77
F8
ENDCHAR
STARTCHAR 002E
ENCODING 46
SWIDTH 211 0
DWIDTH 11 0
BBX 3 2 3 -1
BITMAP
E0
C0
ENDCHAR
STARTCHAR 0030
ENCODING 48
SWIDTH 192 0
DWIDTH 10 0
BBX 12 16 -1 0
BITMAP
0070
01D0
0310
0F10
1E10
1C20
3820
7040
7040
6080
E100
4100
4200
4400
5800
2000
ENDCHAR
STARTCHAR 0031
ENCODING 49
SWIDTH 173 0
DWIDTH 9 0
BBX 11 15 -1 1
BITMAP
0020
0060
00C0
0180
0680
0D00
1300
6600
C600
0C00
1C00
3800
3000
7000
E000
ENDCHAR
STARTCHAR 0032
ENCODING 50
SWIDTH 211 0
DWIDTH 11 0
BBX 13 15 -1 0
BITMAP
00F0
0198
0348
0658
0498
05B8
0670
00E0
0180
0600
0800
3000
7E20
4640
8780
ENDCHAR
STARTCHAR 0033
ENCODING 51
SWIDTH 211 0
DWIDTH 11 0
BBX 13 15 -1 1
BITMAP
00F0
0398
0758
0698
0530
0260
0040
07C0
0640
00C0
01C0
6180
E300
8600
7800
ENDCHAR
STARTCHAR 0034
ENCODING 52
SWIDTH 230 0
DWIDTH 12 0
BBX 14 15 -1 0
BITMAP
0038
0070
0060
00E0
00C4
0188
0198
0310
0220
0460
0CC8
7FF0
E1C0
0380
0300
ENDCHAR
STARTCHAR 0035
ENCODING 53
SWIDTH 230 0
DWIDTH 12 0
BBX 14 15 -1 1
BITMAP
00CC
01F8
0200
0200
0400
0800
0F80
10C0
00C0
01C0
0180
0380
C300
8600
9800
ENDCHAR
STARTCHAR 0036
ENCODING 54
SWIDTH 211 0
DWIDTH 11 0
BBX 13 15 -1 0
BITMAP
00F0
0118
0638
0E00
1C00
1800
3F00
7900
7100
6100
C300
C200
C600
4C00
3800
ENDCHAR
STARTCHAR 0037
ENCODING 55
SWIDTH 192 0
DWIDTH 10 0
BBX 12 15 -1 1
BITMAP
0810
0F20
1BE0
3040
2080
2100
0300
0600
0600
0C00
1800
3800
7000
7000
E000
ENDCHAR
STARTCHAR 0038
ENCODING 56
SWIDTH 211 0
DWIDTH 11 0
BBX 12 16 -1 -1
BITMAP
00E0
0310
0610
0610
0630
0660
07C0
0700
1F00
7300
6300
C300
C300
4200
6C00
1000
ENDCHAR
STARTCHAR 0039
ENCODING 57
SWIDTH 192 0
DWIDTH 10 0
BBX 12 15 -1 -1
BITMAP
00E0
0190
0310
0630
0C30
0C70
0860
09E0
06C0
0180
0300
E200
8400
5800
2000
ENDCHAR
STARTCHAR 003A
ENCODING 58
SWIDTH 76 0
DWIDTH 4 0
BBX 4 9 0 0
BITMAP
10
20
40
C0
80
00
00
60
E0
ENDCHAR
STARTCHAR 003B
ENCODING 59
SWIDTH 76 0
DWIDTH 4 0
BBX 5 11 0 -3
BITMAP
08
10
20
60
40
00
00
30
20
60
80
ENDCHAR
STARTCHAR 003D
ENCODING 61
SWIDTH 134 0
DWIDTH 7 0
BBX 8 3 0 4
BITMAP
FF
00
FE
ENDCHAR
STARTCHAR 003F
ENCODING 63
SWIDTH 269 0
DWIDTH 14 0
BBX 11 15 2 0
BITMAP
03C0
0420
0C20
0C60
0C60
00C0
0180
0300
0400
0800
1000
2000
0000
C000
C000
ENDCHAR
STARTCHAR 0041
ENCODING 65
SWIDTH 423 0
DWIDTH 22 0
BBX 35 25 -2 0
BITMAP
0000000060
00000001C0
00000002C0
0000000D80
0000001100
0000002300
0000004600
0000008600
0000010C00
001E021C00
0071841800
00C0483000
00C0307000
008020E000
008070C000
0080D1C000
0081938000
0043178000
0046170000
00241E0000
70183C6000
F03C3CC000
80C37B0000
8380FC0000
7C00E00000
ENDCHAR
STARTCHAR 0042
ENCODING 66
SWIDTH 442 0
DWIDTH 23 0
BBX 30 26 -2 -1
BITMAP
00003F0C
0001C0F8
00060060
001C4050
00304090
00404198
0080C318
01008638
02018E30
06018C70
04031CE0
080239C0
08043F00
08087900
0810F080
04E0F040
0301E8C0
0003F0C0
0007C180
00078180
700F0300
F81E0600
803A0C00
80E21800
6301E000
1C000000
ENDCHAR
STARTCHAR 0043
ENCODING 67
SWIDTH 326 0
DWIDTH 17 0
BBX 27 25 -1 1
BITMAP
006003C0
01800C60
0E003040
180060C0
6001C180
40038300
80070600
800E0C00
801C1800
803C6000
8079C000
40F60000
3FF80000
01C00000
01C08000
03874000
03886000
03106000
03206000
0220C000
0241C000
02418000
02430000
020E0000
01F00000
ENDCHAR
STARTCHAR 0044
ENCODING 68
SWIDTH 384 0
DWIDTH 20 0
BBX 27 25 -1 0
BITMAP
0003F800
001C0400
00200200
00C00100
03810080
070100E0
06010180
0C010380
18020680
18020C80
10041880
10043880
10087080
10306100
0DC0E100
0201C100
0001C200
00038400
00070400
00070800
000E1000
001C2000
7C384000
9FE18000
7FFE0000
ENDCHAR
STARTCHAR 0045
ENCODING 69
SWIDTH 288 0
DWIDTH 15 0
BBX 23 25 -1 1
BITMAP
0001F8
000604
001C32
0038C6
007184
00630C
00E218
00E230
0041C0
004000
00BC00
031C00
0C0000
380000
701800
70E400
E10600
C20600
C20600
C40600
C40C00
C41800
C03000
60E000
1F8000
ENDCHAR
STARTCHAR 0046
ENCODING 70
SWIDTH 307 0
DWIDTH 16 0
BBX 36 25 -3 1
BITMAP
00003FFFF0
0001C00000
0006204000
0018208000
0020218000
0040410000
0080430000
0100C60000
01018C0000
01031C6000
010618E000
00F839C000
00003B0000
0000760000
0003EE0000
000CEC0000
0031C00000
0043C00000
0083800000
0007000000
780E000000
B01C000000
8078000000
41E0000000
3F00000000
ENDCHAR
STARTCHAR 0047
ENCODING 71
SWIDTH 307 0
DWIDTH 16 0
BBX 25 25 -1 1
BITMAP
00300F00
00C03080
03006180
0E018100
18038300
30070600
600E0800
C01C1000
C0386200
80708400
80730800
80EC1000
80F03000
61C0F000
1E816000
0082E000
008DC000
0071C000
00038000
00038000
18070000
380C0000
40180000
40200000
31C00000
ENDCHAR
STARTCHAR 0048
ENCODING 72
SWIDTH 403 0
DWIDTH 21 0
BBX 39 25 -3 0
BITMAP
000000207C
0000004182
0000008206
0000010404
000003080C
001E061818
00630C3030
00861C60E0
0004386180
0004F8C600
000331F800
000073C000
0000FF8000
0000E70000
0007C60000
001B8E0000
00630C0000
00871C0000
010E180000
000C180000
3018304000
7030304000
8060308000
4080230000
3F001C0000
ENDCHAR
STARTCHAR 0049
ENCODING 73
SWIDTH 269 0
DWIDTH 14 0
BBX 30 25 -3 0
BITMAP
0000003C
000000E0
00000780
00001900
00003300
00004600
00018D00
00030D00
00031900
00063900
00043900
000C7100
000CF200
0008E400
0009E400
0005D800
0003A000
00078000
00070000
000E0000
601C0000
F0380000
80600000
C1800000
3E000000
ENDCHAR
STARTCHAR 004A
ENCODING 74
SWIDTH 346 0
DWIDTH 18 0
BBX 33 35 -3 -11
BITMAP
0000000380
0000001C00
0000007800
000001D000
0000032000
0000066000
00001CC000
000038A000
000031A000
0000632000
0000E32000
0000C62000
0000C66000
00008E4000
00009C8000
00009F0000
00007E0000
0000780000
0000700000
0000F00000
0000E60000
0001CC0000
0003F00000
0007C00000
001F000000
00F6000000
03CE000000
070C000000
1C18000000
3830000000
6060000000
C0C0000000
C100000000
8200000000
7C00000000
ENDCHAR
STARTCHAR 004B
ENCODING 75
SWIDTH 365 0
DWIDTH 19 0
BBX 36 25 -3 -1
BITMAP
0000004070
0000008180
0000010200
0000030400
0000060C00
0004061800
001B0C3000
0063186000
00C638C000
0084F08000
0107310000
0000620000
0000E40000
0000F80000
0001F80000
00039C0000
0003980000
0007380000
000E300000
001C700000
3018610000
7030620000
80E0440000
4180480000
3E00700000
ENDCHAR
STARTCHAR 004C
ENCODING 76
SWIDTH 346 0
DWIDTH 18 0
BBX 31 25 -2 0
BITMAP
0000E03E
00070072
000C00C2
00180182
00300306
00600604
00600E08
00401C10
00C01820
00803840
00807880
00C07300
0040FC00
0030E000
000FE000
0001C000
00038000
00038000
00070000
00060000
000C0400
3F180C00
C3F01800
C1FC6000
7F1F8000
ENDCHAR
STARTCHAR 004D
ENCODING 77
SWIDTH 500 0
DWIDTH 26 0
BBX 38 25 -3 0
BITMAP
0000000604
0000000C0C
0000001818
0000001030
0000003060
00000060E0
000000E1C0
000001C3C0
0000038780
0000038F00
0000070B00
00000B1600
0000162E00
00002E6C00
00007CDC00
0000D8B800
0001B93000
0001327000
0002666000
0004E4E000
3818C8C200
7830D0C600
8041A18C00
4181C1B000
3E00804000
ENDCHAR
STARTCHAR 004E
ENCODING 78
SWIDTH 423 0
DWIDTH 22 0
BBX 38 25 -3 0
BITMAP
000001000C
0000010018
0000020060
00000600C0
0000060180
00000E0100
00001E0200
00001E0400
00002E0800
00004E0800
00004E1000
00008C2000
00008C2000
00010C4000
00021C4000
00021C8000
00040D0000
00080D0000
00100E0000
00100C0000
70200C0000
E0C0180000
8100180000
6E00100000
1000000000
ENDCHAR
STARTCHAR 004F
ENCODING 79
SWIDTH 288 0
DWIDTH 15 0
BBX 22 25 -1 0
BITMAP
0003F0
000E18
00180C
007004
00E3C4
01CC24
039028
0720F0
076030
0E4020
1C8020
3D8060
390040
7A00C0
720080
720180
E40100
E40200
C80600
C80C00
C81800
C03000
C06000
418000
3E0000
ENDCHAR
STARTCHAR 0050
ENCODING 80
SWIDTH 365 0
DWIDTH 19 0
BBX 28 25 -2 1
BITMAP
0000FC20
0007C340
000E00C0
003881A0
00608320
00C08620
01810630
03010C30
06013C20
0402D860
0C0338C0
08057180
08097300
0810EC00
0820F000
08C1C000
07038000
00038000
00070000
000E0000
700C0000
F0180000
80200000
C0C00000
3F000000
ENDCHAR
STARTCHAR 0051
ENCODING 81
SWIDTH 403 0
DWIDTH 21 0
BBX 25 25 -1 -1
BITMAP
0001FC00
0007FE00
001C0300
00300100
00E04180
01C04180
01804180
03004180
06004380
0400C380
0C018700
08010700
08030E00
08060E00
08181C00
04303800
03C03000
00006000
0000C000
00038000
00070100
7E0C0200
87F80400
81F81800
7E0FE000
ENDCHAR
STARTCHAR 0052
ENCODING 82
SWIDTH 423 0
DWIDTH 22 0
BBX 27 25 -1 0
BITMAP
0001FE60
000E01C0
003001C0
00410340
00810720
01010620
02010C20
04031C60
0C021860
080638C0
18047180
10087300
1018F600
1031E800
1061D400
08838C00
07039C00
00071800
000E3800
001C7000
60386080
F070E100
E0E0C600
8380CC00
7E007000
ENDCHAR
STARTCHAR 0053
ENCODING 83
SWIDTH 288 0
DWIDTH 15 0
BBX 31 25 -2 1
BITMAP
0001C03E
000E0042
00300082
00600106
00C0020C
01800618
03000C10
02001C20
020018C0
02003900
02007A00
01007C00
00C0F000
003FE000
0000E000
0001C000
0003C000
00038000
00070000
000E0000
201C0000
F0380000
F0600000
81C00000
7E000000
ENDCHAR
STARTCHAR 0054
ENCODING 84
SWIDTH 307 0
DWIDTH 16 0
BBX 36 25 -3 0
BITMAP
00003FFFF0
0003C00000
000C204000
0010208000
0060410000
0080430000
0080C60000
01008E0000
01018C0000
02031C0000
020C380000
01F0380000
0000700000
0000700000
0000E00000
0001E00000
0001C00000
0003800000
0007800000
0007000000
700E000000
F01C000000
8070000000
41C0000000
7F00000000
ENDCHAR
STARTCHAR 0055
ENCODING 85
SWIDTH 384 0
DWIDTH 20 0
BBX 28 26 -1 0
BITMAP
003F0000
00C08000
01004000
06104070
0C10C060
1810C0E0
1010C0C0
2031C180
40238180
40638300
80C70700
80C70600
818E0C00
831C0C00
8C1C1800
78383800
00383000
00706000
0060E000
00E1C000
00C3C400
01C58400
01898800
01911000
00A16000
00408000
ENDCHAR
STARTCHAR 0056
ENCODING 86
SWIDTH 211 0
DWIDTH 11 0
BBX 32 25 -2 0
BITMAP
00006001
0000C006
00008018
00010020
000300C0
07030100
19860200
218E0400
431C0800
833C1000
825C2000
01B84000
00388000
00710000
00720000
00E40000
00E40000
00C80000
01D00000
01A00000
01C00000
03800000
03000000
06000000
08000000
ENDCHAR
STARTCHAR 0057
ENCODING 87
SWIDTH 365 0
DWIDTH 19 0
BBX 37 25 -2 0
BITMAP
000040C018
0000818060
00010300C0
0003030100
0002060200
0F060E0600
198E160C00
218C1C1800
431C3C1000
823C582000
82D8784000
0138B8C000
0039308000
0072710000
0072720000
00E4E60000
00E8E40000
00D0C80000
01E1D00000
01A1A00000
0341C00000
0383800000
0707000000
0406000000
080C000000
ENDCHAR
STARTCHAR 0058
ENCODING 88
SWIDTH 365 0
DWIDTH 19 0
BBX 28 25 -2 1
BITMAP
0007C010
00182020
00621040
00821080
01021100
02021A00
02021C00
04061C00
04063800
040C7800
08187000
0830F000
0461FC00
03C1C000
0003C000
00038000
00078000
000F0000
001F0000
001E0000
003A0000
70720C00
F0C21800
83822000
7E03C000
ENDCHAR
STARTCHAR 0059
ENCODING 89
SWIDTH 519 0
DWIDTH 27 0
BBX 31 25 -2 1
BITMAP
000FC002
0030200C
00C03018
03103010
04103020
08107060
101070C0
2010E0C0
2010E1C0
4021C380
40638380
80438700
80C70F00
818E0E00
830E1E00
440C3C00
38087800
0008B800
00077000
0000E000
0001C000
07038000
0F060000
081C0000
07E00000
ENDCHAR
STARTCHAR 005A
ENCODING 90
SWIDTH 365 0
DWIDTH 19 0
BBX 32 26 -2 0
BITMAP
0001F00F
000E1831
00301863
006238C6
0082318C
01022330
02061FC0
04060E00
040C0E00
080C1C00
08183C00
08307800
0CE3F800
0783FC00
0000E000
0000E000
0001C000
00038000
00030000
00060000
000C0200
00080600
7F900400
81F81800
811F6000
7E008000
ENDCHAR
STARTCHAR 0061
ENCODING 97
SWIDTH 288 0
DWIDTH 15 0
BBX 16 10 1 0
BITMAP
03DC
0C38
1878
7070
F0E1
61E2
62C4
4688
5870
2000
ENDCHAR
STARTCHAR 0062
ENCODING 98
SWIDTH 230 0
DWIDTH 12 0
BBX 14 21 1 0
BITMAP
001C
001C
0038
0030
0070
00E0
00C0
01C0
0180
0300
0700
0E00
1E60
3CA0
3920
7B40
B280
72A0
61C0
6600
3800
ENDCHAR
STARTCHAR 0063
ENCODING 99
SWIDTH 192 0
DWIDTH 10 0
BBX 10 9 2 0
BITMAP
0780
19C0
7180
E000
E000
C080
C100
C200
7C00
ENDCHAR
STARTCHAR 0064
ENCODING 100
SWIDTH 288 0
DWIDTH 15 0
BBX 20 19 1 -1
BITMAP
000070
0000E0
0001C0
000180
000380
000700
000600
000E00
01DC00
063C00
1C3800
383000
707000
F0E100
61E200
62C400
44C800
785000
002000
ENDCHAR
STARTCHAR 0065
ENCODING 101
SWIDTH 211 0
DWIDTH 11 0
BBX 11 10 1 -1
BITMAP
03C0
0E60
1C60
78C0
F180
7E20
6040
6080
2300
1C00
ENDCHAR
STARTCHAR 0066
ENCODING 102
SWIDTH 173 0
DWIDTH 9 0
BBX 25 30 -6 -8
BITMAP
00000380
00000C80
00001080
00002180
00004100
00004200
00008400
00018800
00013000
00034000
00068000
000F0000
001C0000
00380000
00580000
00B00000
01708000
00610000
00E20000
03C40000
03F80000
03800000
07000000
06000000
0E000000
1C000000
38000000
70000000
70000000
E0000000
ENDCHAR
STARTCHAR 0067
ENCODING 103
SWIDTH 288 0
DWIDTH 15 0
BBX 20 21 -3 -11
BITMAP
001EE0
0063C0
01C380
038380
078F10
070E10
061E20
063C40
03D980
003E00
007000
01F000
066000
18C000
30C000
618000
410000
820000
840000
880000
700000
ENDCHAR
STARTCHAR 0068
ENCODING 104
SWIDTH 288 0
DWIDTH 15 0
BBX 17 21 0 -1
BITMAP
000600
000E00
001C00
001C00
003800
007000
007000
00E000
00C000
01C000
038000
070000
0F7800
1E9C00
2F1800
3E3800
5C3080
387100
706200
604400
E07800
ENDCHAR
STARTCHAR 0069
ENCODING 105
SWIDTH 153 0
DWIDTH 8 0
BBX 10 16 1 -1
BITMAP
00C0
01C0
01C0
0000
0000
0000
0000
0E00
1C00
3C00
7800
F000
7100
6200
4400
7800
ENDCHAR
STARTCHAR 006A
ENCODING 106
SWIDTH 192 0
DWIDTH 10 0
BBX 22 27 -9 -12
BITMAP
00000C
00001C
000000
000000
000000
000000
0001E0
0003C0
000380
000780
000F10
000610
000E20
000C40
001C80
003B00
003400
00F000
076000
08C000
308000
418000
410000
820000
840000
880000
F00000
ENDCHAR
STARTCHAR 006B
ENCODING 107
SWIDTH 250 0
DWIDTH 13 0
BBX 15 21 0 1
BITMAP
000E
001C
0018
0038
0070
0070
00E0
00C0
01C0
0380
0780
0F00
0E3C
1E4C
2C8C
5F80
7EC2
3DC4
7188
E190
C1E0
ENDCHAR
STARTCHAR 006C
ENCODING 108
SWIDTH 153 0
DWIDTH 8 0
BBX 14 22 1 -1
BITMAP
001C
0038
0038
0070
0060
00E0
01C0
0180
0380
0300
0700
0E00
1C00
3C00
5800
F800
B080
7100
6200
6400
2800
1000
ENDCHAR
STARTCHAR 006D
ENCODING 109
SWIDTH 442 0
DWIDTH 23 0
BBX 24 9 1 0
BITMAP
0E1C78
133498
264D38
468E38
8F1C71
1E3861
1C3862
38704C
70E070
ENDCHAR
STARTCHAR 006E
ENCODING 110
SWIDTH 307 0
DWIDTH 16 0
BBX 16 10 1 0
BITMAP
0E18
1B2C
275C
46B8
8F38
1E71
1C72
3864
7028
0010
ENDCHAR
STARTCHAR 006F
ENCODING 111
SWIDTH 192 0
DWIDTH 10 0
BBX 10 10 1 -1
BITMAP
0780
1C80
3880
F080
F080
E140
C280
C700
5800
2000
ENDCHAR
STARTCHAR 0070
ENCODING 112
SWIDTH 307 0
DWIDTH 16 0
BBX 22 24 -3 -10
BITMAP
000180
000380
000700
000E00
001E00
003C00
0039C0
007B40
00B4C0
0179C0
03F384
02E388
01C310
038320
0382C0
070100
060000
0E0000
1C0000
180000
380000
700000
600000
E00000
ENDCHAR
STARTCHAR 0071
ENCODING 113
SWIDTH 250 0
DWIDTH 13 0
BBX 14 18 1 -8
BITMAP
07B8
1C70
3870
70E0
E0C0
E1C4
4388
4F90
57E0
2700
0D00
0D00
1900
3100
3200
2200
2400
3800
ENDCHAR
STARTCHAR 0072
ENCODING 114
SWIDTH 230 0
DWIDTH 12 0
BBX 13 9 1 1
BITMAP
0E38
1270
2660
46C0
8F80
1E90
3CE0
3800
7000
ENDCHAR
STARTCHAR 0073
ENCODING 115
SWIDTH 153 0
DWIDTH 8 0
BBX 8 11 1 0
BITMAP
04
08
08
18
28
4C
0C
0D
1E
BC
F8
ENDCHAR
STARTCHAR 0074
ENCODING 116
SWIDTH 134 0
DWIDTH 7 0
BBX 12 15 0 -21
BITMAP
00E0
00C0
0180
03F0
0700
0E00
0E00
1C00
3C00
7800
B080
7100
6600
2800
1000
ENDCHAR
STARTCHAR 0075
ENCODING 117
SWIDTH 230 0
DWIDTH 12 0
BBX 14 9 0 1
BITMAP
0C38
1C70
3860
70E0
F1C0
63C4
6588
4990
70E0
ENDCHAR
STARTCHAR 0076
ENCODING 118
SWIDTH 250 0
DWIDTH 13 0
BBX 13 9 1 0
BITMAP
0E30
1670
2650
4E90
8EA0
1CC8
18D0
19A0
0E00
ENDCHAR
STARTCHAR 0077
ENCODING 119
SWIDTH 307 0
DWIDTH 16 0
BBX 17 10 1 0
BITMAP
1C3300
387700
78E500
F1EB00
E1CA00
E38C80
C78F00
C91000
F16000
008000
ENDCHAR
STARTCHAR 0078
ENCODING 120
SWIDTH 269 0
DWIDTH 14 0
BBX 14 10 1 0
BITMAP
071C
19EC
2388
4380
8300
0704
8E08
D630
A2C0
4100
ENDCHAR
STARTCHAR 0079
ENCODING 121
SWIDTH 326 0
DWIDTH 17 0
BBX 20 21 -1 -12
BITMAP
0180E0
06C1C0
09C3C0
13C780
238F00
071E10
072E20
065C40
049980
033A00
007400
01E000
066000
18C000
308000
618000
C10000
820000
840000
880000
700000
ENDCHAR
STARTCHAR 007A
ENCODING 122
SWIDTH 269 0
DWIDTH 14 0
BBX 17 21 -2 -12
BITMAP
01E180
026780
04C900
08CE00
103000
002080
00E000
015200
038C00
001800
003800
00F800
033000
046000
18E000
21C000
418000
C30000
860000
8C0000
F00000
ENDCHAR
STARTCHAR 00A0
ENCODING 160
SWIDTH 192 0
DWIDTH 10 0
BBX 0 0 0 0
BITMAP
ENDCHAR
STARTCHAR 2010
ENCODING 8208
SWIDTH 192 0
DWIDTH 10 0
BBX 8 3 1 5
BITMAP
0F
77
F8
ENDCHAR
STARTCHAR 2019
ENCODING 8217
SWIDTH 19 0
DWIDTH 1 0
BBX 5 5 0 10
BITMAP
18
38
10
20
C0
ENDCHAR
STARTCHAR 2022
ENCODING 8226
SWIDTH 1615 0
DWIDTH 84 0
BBX 92 42 -2 0
BITMAP
0000013F0000007E7E000000
00300F3F0000007E7E000000
00FE3F3F0000007EFE000000
01FE3F3F1018307EFE000000
07FE3F3F3C3C787EFCC06000
17FE7F9F7F3FFC7EFDF0F040
37F47F9FFF7EFC7EFDFCF9E0
73F47F9FFF7E7C7EFFFDFBF0
7BF43F1F7F3E7C7EFFFDFBF0
FBF63F1F3F3E7C7EFDFDFBF0
FDF63F1F3F3E7C7CFDF9FBF0
FFF63F1FBF3FFC7CFDF9FBF0
7FC63F1FBF3FFE7EFDF9FBF0
7FE73F9FFF7F7C7EFFF9FFE0
7FFF3F9FFF1E7C7CFFF9FFF0
3FFE3F1FBE0E183CFDF9FBF0
1FFC0F073E00001C39F073E0
07F803027C00000013F020E0
000000007000000003E00040
00000001C00000000F000000
000000000000000010040000
00000000001060C002060000
0000000000307FC00F060000
0000600C1031BF81FC0E0000
0000600E30719F07E00C0000
0000700E18F18007C00C0000
0000700E18F18007C00C0000
0000700E1DE3FE07C01C0000
0000F80F1FE3FE03C01C0000
0000F80F0FE37001C01C0000
0000F00F0FE3000060180000
0000F0070FC3C04030380000
0000F00787C3F8C03C380000
0000FF83C7C3FF803C380000
0000FFE3C383FF807C780000
0000FFF1E181FF8C58700000
0000FFF1E001FC3FD0300000
0000FFF88000003FF0000000
0000FFD80000001FE1C00000
0000FFC00000000401C00000
000070000000000001E00000
000000000000000000F00000
ENDCHAR
ENDFONT
